<svg width="40" height="40" viewBox="0 0 40 40" fill="none" xmlns="http://www.w3.org/2000/svg">
<path fill-rule="evenodd" clip-rule="evenodd" d="M33.5 20C33.5 20.8284 32.8284 21.5 32 21.5L12.6216 21.5L18.0614 26.9393C18.6472 27.525 18.6473 28.4748 18.0615 29.0606C17.4757 29.6464 16.526 29.6465 15.9402 29.0607L7.93938 21.0607C7.65805 20.7794 7.49999 20.3978 7.49999 20C7.49999 19.6021 7.65805 19.2206 7.93938 18.9393L15.9402 10.9393C16.526 10.3535 17.4757 10.3536 18.0615 10.9394C18.6473 11.5252 18.6472 12.475 18.0614 13.0607L12.6216 18.5L32 18.5C32.8284 18.5 33.5 19.1716 33.5 20Z" fill="#E2DFD6" fill-opacity="0.5"/>
</svg>
