<svg width="28" height="28" viewBox="0 0 28 28" fill="none" xmlns="http://www.w3.org/2000/svg">
  <path d="M4 22V8C4 7.44772 4.44772 7 5 7H7C7.55228 7 8 7.44772 8 8V22C8 22.5523 7.55228 23 7 23H5C4.44772 23 4 22.5523 4 22Z" fill="#E2DFD6"/>
  <path d="M12 22V12C12 11.4477 12.4477 11 13 11H15C15.5523 11 16 11.4477 16 12V22C16 22.5523 15.5523 23 15 23H13C12.4477 23 12 22.5523 12 22Z" fill="#E2DFD6"/>
  <path d="M20 22V5C20 4.44772 20.4477 4 21 4H23C23.5523 4 24 4.44772 24 5V22C24 22.5523 23.5523 23 23 23H21C20.4477 23 20 22.5523 20 22Z" fill="#E2DFD6"/>
</svg> 